<?xml version="1.0" standalone="no"?>
<!DOCTYPE svg PUBLIC "-//W3C//DTD SVG 20010904//EN"
 "http://www.w3.org/TR/2001/REC-SVG-20010904/DTD/svg10.dtd">
<svg version="1.0" xmlns="http://www.w3.org/2000/svg"
 width="229.000000pt" height="220.000000pt" viewBox="0 0 229.000000 220.000000"
 preserveAspectRatio="xMidYMid meet">
<metadata>
Created by potrace 1.16, written by Peter Selinger 2001-2019
</metadata>
<g transform="translate(0.000000,220.000000) scale(0.100000,-0.100000)"
fill="#000000" stroke="none">
<path d="M1101 2186 c-56 -31 -66 -98 -22 -148 l29 -33 -48 -140 c-27 -77 -70
-204 -97 -282 l-48 -143 -33 0 c-32 0 -64 -23 -87 -63 -9 -16 -40 -18 -308
-24 -228 -5 -297 -3 -297 6 0 27 -49 61 -88 61 -73 0 -114 -57 -92 -126 19
-57 82 -79 141 -48 l31 15 181 -137 c312 -237 286 -211 279 -267 -4 -42 -2
-51 22 -76 l27 -28 -83 -276 c-80 -265 -84 -277 -110 -282 -35 -8 -78 -59 -78
-92 0 -71 77 -121 138 -89 41 21 54 48 50 99 l-3 41 155 108 c85 59 191 133
235 164 78 55 80 55 106 40 34 -20 62 -20 100 -1 l29 16 148 -102 c332 -231
331 -230 325 -265 -12 -70 63 -131 128 -104 39 17 59 46 59 90 0 48 -23 77
-70 91 -38 12 -41 16 -61 78 -56 183 -149 499 -149 508 0 5 9 18 20 28 14 12
20 31 21 59 l0 41 233 175 c147 110 241 174 252 172 11 -2 31 -6 45 -9 59 -11
119 54 105 113 -18 71 -106 99 -160 49 -14 -13 -26 -31 -26 -40 0 -13 -21 -15
-148 -15 -243 0 -452 11 -452 25 0 19 -44 54 -77 61 -29 6 -34 13 -56 78 -14
39 -58 168 -99 286 l-74 215 23 22 c16 15 23 34 23 58 0 47 -14 71 -50 90 -35
18 -57 19 -89 1z m77 -213 c6 -16 51 -143 100 -283 l89 -255 -24 -26 c-12 -14
-23 -30 -23 -37 0 -9 -43 -12 -163 -12 l-163 0 -26 40 -26 39 96 280 c101 291
115 318 140 254z m-378 -665 c6 -13 15 -30 21 -38 9 -12 2 -48 -30 -155 -23
-77 -44 -148 -47 -157 -3 -10 -15 -18 -28 -18 -12 0 -26 -4 -32 -10 -6 -6 -58
27 -149 98 -129 98 -336 255 -343 258 -1 1 0 8 4 17 6 17 12 18 457 25 134 2
138 1 147 -20z m522 -5 c7 -16 32 -38 59 -51 l45 -22 43 -136 42 -135 -27 -32
c-23 -27 -26 -37 -21 -78 l6 -47 -125 -90 c-124 -89 -126 -90 -154 -75 -24 11
-36 12 -69 2 l-40 -12 -125 94 c-116 86 -126 96 -126 125 0 21 -10 44 -27 64
l-26 31 45 152 c36 122 49 153 64 155 43 7 76 26 90 53 l15 29 159 0 159 0 13
-27z m772 7 c15 -15 -1 -37 -56 -79 -29 -22 -78 -59 -108 -82 -212 -163 -254
-196 -271 -208 -17 -12 -24 -12 -52 2 -18 9 -39 18 -47 20 -9 3 -32 58 -59
145 l-44 141 27 31 c14 17 26 36 26 42 0 13 570 1 584 -12z m-1151 -624 l115
-85 -1 -49 -1 -49 -95 -67 c-451 -316 -428 -308 -374 -126 19 63 56 187 81
275 l47 159 34 7 c18 4 38 12 44 18 16 16 20 13 150 -83z m638 73 c3 -5 43
-135 89 -290 67 -226 81 -282 70 -289 -17 -10 -9 -15 -195 116 -82 57 -184
128 -225 156 l-75 51 0 47 0 47 125 91 c118 85 127 90 165 85 22 -4 43 -10 46
-14z"/>
</g>
</svg>
